:FULLY-SPECIFIED
:FORCE-ALL-JOINTS-BE-3DOF
:DEGREES
306
root 9.00263 15.4586 -23.8277 12.266 58.0461 15.5557
lfemur -16.641 19.0567 -17.962
ltibia 51.9122 0 0
lfoot -17.2333 -25.6561 0
ltoes 58.577 0 0
rfemur -54.3886 -20.666 36.6907
rtibia 58.0739 0 0
rfoot 17.191 17.0451 0
rtoes -0.515951 0 0
lowerback 9.61459 -3.18714 -8.39265
upperback 5.01274 -4.77643 -3.98998
thorax 0.225305 -2.41607 0.961843
lowerneck -5.62773 -10.328 -2.27584
upperneck -2.56537 -13.6586 10.5273
head 1.12245 -6.71927 3.31524
lclavicle -3.27761e-014 -1.40552e-014 0
lhumerus -42.5603 -42.3631 99.5061
lradius 59.1614 0 0
lwrist 21.3699 0 0
lhand 13.4738 11.4511 0
lfingers 7.12502 0 0
lthumb 38.4129 37.1344 0
rclavicle -3.27761e-014 -1.40552e-014 0
rhumerus -34.1262 69.4965 -68.9643
rradius 80.3263 0 0
rwrist 4.57882 0 0
rhand 5.27567 -5.73711 0
rfingers 7.12502 0 0
rthumb 30.6321 -753.201 0
307
root 9.03556 15.4426 -23.7909 12.3034 58.1706 15.8217
lfemur -16.3346 19.0629 -17.9456
ltibia 52.1156 0 0
lfoot -17.3099 -25.9107 0
ltoes 58.5917 0 0
rfemur -55.0266 -21.1301 37.4161
rtibia 57.7782 0 0
rfoot 17.2081 17.352 0
rtoes -0.30275 0 0
lowerback 9.73871 -3.19862 -8.51413
upperback 5.12525 -4.80127 -4.11015
thorax 0.275237 -2.43 0.909921
lowerneck -5.55651 -10.361 -2.27002
upperneck -2.6718 -13.7054 10.7194
head 1.09146 -6.74108 3.37883
lclavicle -3.33958e-014 -1.43125e-014 0
lhumerus -42.4065 -42.5304 99.1545
lradius 59.1219 0 0
lwrist 21.3914 0 0
lhand 13.5646 11.4558 0
lfingers 7.12502 0 0
lthumb 38.4988 37.1176 0
rclavicle -3.33958e-014 -1.43125e-014 0
rhumerus -33.9357 70.9667 -68.9449
rradius 81.2445 0 0
rwrist 3.93263 0 0
rhand 5.47149 -5.7173 0
rfingers 7.12502 0 0
rthumb 30.8196 -753.153 0
308
root 8.99396 15.4623 -23.6714 12.206 56.9715 15.4495
lfemur -16.3444 19.0233 -17.6187
ltibia 52.4851 0 0
lfoot -16.9047 -25.5403 0
ltoes 57.7258 0 0
rfemur -54.6266 -21.0325 37.2474
rtibia 57.5497 0 0
rfoot 16.5625 17.0364 0
rtoes -0.117147 0 0
lowerback 9.59194 -3.13187 -8.33809
upperback 5.06428 -4.7018 -3.99604
thorax 0.285446 -2.37982 0.921234
lowerneck -5.5951 -10.2423 -2.2239
upperneck -2.601 -13.5521 10.5903
head 1.10348 -6.66458 3.33345
lclavicle -3.27415e-014 -1.38097e-014 0
lhumerus -42.4507 -42.1532 99.2333
lradius 59.0869 0 0
lwrist 21.2838 0 0
lhand 13.1907 11.3989 0
lfingers 7.12502 0 0
lthumb 38.1421 37.1253 0
rclavicle -3.27415e-014 -1.38097e-014 0
rhumerus -34.0452 69.6883 -69.3911
rradius 81.1385 0 0
rwrist 3.90757 0 0
rhand 4.69415 -6.33179 0
rfingers 7.12502 0 0
rthumb 30.0712 -753.815 0
309
root 8.95237 15.4821 -23.5519 12.1086 55.7723 15.0772
lfemur -16.3542 18.9837 -17.2917
ltibia 52.8545 0 0
lfoot -16.4995 -25.1699 0
ltoes 56.86 0 0
rfemur -54.2265 -20.9349 37.0788
rtibia 57.3213 0 0
rfoot 15.9169 16.7208 0
rtoes 0.0684555 0 0
lowerback 9.44516 -3.06513 -8.16204
upperback 5.00331 -4.60234 -3.88193
thorax 0.295654 -2.32965 0.932546
lowerneck -5.63369 -10.1235 -2.17778
upperneck -2.5302 -13.3987 10.4612
head 1.11551 -6.58808 3.28807
lclavicle -3.20871e-014 -1.33069e-014 0
lhumerus -42.4948 -41.776 99.312
lradius 59.052 0 0
lwrist 21.1761 0 0
lhand 12.8167 11.3419 0
lfingers 7.12502 0 0
lthumb 37.7854 37.133 0
rclavicle -3.20871e-014 -1.33069e-014 0
rhumerus -34.1546 68.4099 -69.8374
rradius 81.0325 0 0
rwrist 3.8825 0 0
rhand 3.91681 -6.94628 0
rfingers 7.12502 0 0
rthumb 29.3229 -754.477 0
310
root 8.91077 15.5018 -23.4324 12.0112 54.5732 14.705
lfemur -16.3641 18.944 -16.9648
ltibia 53.224 0 0
lfoot -16.0944 -24.7995 0
ltoes 55.9941 0 0
rfemur -53.8265 -20.8373 36.9101
rtibia 57.0928 0 0
rfoot 15.2713 16.4052 0
rtoes 0.254058 0 0
lowerback 9.29839 -2.99838 -7.986
upperback 4.94235 -4.50287 -3.76782
thorax 0.305863 -2.27947 0.943859
lowerneck -5.67228 -10.0048 -2.13166
upperneck -2.4594 -13.2454 10.3322
head 1.12753 -6.51159 3.24269
lclavicle -3.14328e-014 -1.28041e-014 0
lhumerus -42.539 -41.3988 99.3908
lradius 59.017 0 0
lwrist 21.0685 0 0
lhand 12.4428 11.285 0
lfingers 7.12502 0 0
lthumb 37.4287 37.1407 0
rclavicle -3.14328e-014 -1.28041e-014 0
rhumerus -34.2641 67.1315 -70.2836
rradius 80.9265 0 0
rwrist 3.85744 0 0
rhand 3.13947 -7.56078 0
rfingers 7.12502 0 0
rthumb 28.5745 -755.139 0
311
root 8.86917 15.5216 -23.3129 11.9138 53.374 14.3327
lfemur -16.3739 18.9044 -16.6378
ltibia 53.5935 0 0
lfoot -15.6892 -24.4291 0
ltoes 55.1283 0 0
rfemur -53.4265 -20.7397 36.7414
rtibia 56.8644 0 0
rfoot 14.6256 16.0897 0
rtoes 0.439661 0 0
lowerback 9.15161 -2.93164 -7.80995
upperback 4.88138 -4.40341 -3.65371
thorax 0.316072 -2.22929 0.955172
lowerneck -5.71087 -9.88603 -2.08554
upperneck -2.38859 -13.092 10.2031
head 1.13955 -6.43509 3.19731
lclavicle -3.07785e-014 -1.23013e-014 0
lhumerus -42.5832 -41.0216 99.4695
lradius 58.982 0 0
lwrist 20.9608 0 0
lhand 12.0689 11.228 0
lfingers 7.12502 0 0
lthumb 37.072 37.1484 0
rclavicle -3.07785e-014 -1.23013e-014 0
rhumerus -34.3736 65.8532 -70.7299
rradius 80.8205 0 0
rwrist 3.83238 0 0
rhand 2.36213 -8.17527 0
rfingers 7.12502 0 0
rthumb 27.8262 -755.801 0
312
root 8.82758 15.5413 -23.1934 11.8163 52.1749 13.9605
lfemur -16.3837 18.8648 -16.3109
ltibia 53.963 0 0
lfoot -15.284 -24.0587 0
ltoes 54.2624 0 0
rfemur -53.0264 -20.6421 36.5727
rtibia 56.6359 0 0
rfoot 13.98 15.7741 0
rtoes 0.625264 0 0
lowerback 9.00484 -2.86489 -7.63391
upperback 4.82041 -4.30394 -3.5396
thorax 0.32628 -2.17912 0.966485
lowerneck -5.74947 -9.76728 -2.03942
upperneck -2.31779 -12.9387 10.074
head 1.15157 -6.35859 3.15193
lclavicle -3.01241e-014 -1.17985e-014 0
lhumerus -42.6273 -40.6444 99.5483
lradius 58.9471 0 0
lwrist 20.8532 0 0
lhand 11.6949 11.1711 0
lfingers 7.12502 0 0
lthumb 36.7153 37.1561 0
rclavicle -3.01241e-014 -1.17985e-014 0
rhumerus -34.483 64.5748 -71.1761
rradius 80.7145 0 0
rwrist 3.80732 0 0
rhand 1.58479 -8.78976 0
rfingers 7.12502 0 0
rthumb 27.0778 -756.462 0
313
root 8.78598 15.561 -23.0738 11.7189 50.9758 13.5882
lfemur -16.3935 18.8252 -15.9839
ltibia 54.3324 0 0
lfoot -14.8788 -23.6883 0
ltoes 53.3966 0 0
rfemur -52.6264 -20.5445 36.4041
rtibia 56.4075 0 0
rfoot 13.3344 15.4585 0
rtoes 0.810866 0 0
lowerback 8.85806 -2.79815 -7.45786
upperback 4.75944 -4.20447 -3.42549
thorax 0.336489 -2.12894 0.977797
lowerneck -5.78806 -9.64854 -1.99331
upperneck -2.24699 -12.7853 9.94494
head 1.1636 -6.28209 3.10654
lclavicle -2.94698e-014 -1.12957e-014 0
lhumerus -42.6715 -40.2672 99.627
lradius 58.9121 0 0
lwrist 20.7455 0 0
lhand 11.321 11.1141 0
lfingers 7.12502 0 0
lthumb 36.3586 37.1638 0
rclavicle -2.94698e-014 -1.12957e-014 0
rhumerus -34.5925 63.2964 -71.6223
rradius 80.6085 0 0
rwrist 3.78225 0 0
rhand 0.807444 -9.40425 0
rfingers 7.12502 0 0
rthumb 26.3295 -757.124 0
314
root 8.74438 15.5808 -22.9543 11.6215 49.7766 13.216
lfemur -16.4034 18.7856 -15.657
ltibia 54.7019 0 0
lfoot -14.4737 -23.3179 0
ltoes 52.5307 0 0
rfemur -52.2263 -20.4468 36.2354
rtibia 56.179 0 0
rfoot 12.6888 15.1429 0
rtoes 0.996469 0 0
lowerback 8.71129 -2.7314 -7.28182
upperback 4.69847 -4.10501 -3.31138
thorax 0.346697 -2.07876 0.98911
lowerneck -5.82665 -9.5298 -1.94719
upperneck -2.17619 -12.632 9.81587
head 1.17562 -6.20559 3.06116
lclavicle -2.88155e-014 -1.07928e-014 0
lhumerus -42.7157 -39.89 99.7058
lradius 58.8772 0 0
lwrist 20.6379 0 0
lhand 10.9471 11.0572 0
lfingers 7.12502 0 0
lthumb 36.0019 37.1715 0
rclavicle -2.88155e-014 -1.07928e-014 0
rhumerus -34.702 62.018 -72.0686
rradius 80.5026 0 0
rwrist 3.75719 0 0
rhand 0.0301031 -10.0187 0
rfingers 7.12502 0 0
rthumb 25.5811 -757.786 0
315
root 8.70279 15.6005 -22.8348 11.5241 48.5775 12.8437
lfemur -16.4132 18.746 -15.3301
ltibia 55.0714 0 0
lfoot -14.0685 -22.9475 0
ltoes 51.6649 0 0
rfemur -51.8263 -20.3492 36.0667
rtibia 55.9506 0 0
rfoot 12.0432 14.8273 0
rtoes 1.18207 0 0
lowerback 8.56452 -2.66465 -7.10578
upperback 4.63751 -4.00554 -3.19727
thorax 0.356906 -2.02859 1.00042
lowerneck -5.86524 -9.41105 -1.90107
upperneck -2.10539 -12.4786 9.68679
head 1.18764 -6.12909 3.01578
lclavicle -2.81611e-014 -1.029e-014 0
lhumerus -42.7598 -39.5128 99.7845
lradius 58.8422 0 0
lwrist 20.5302 0 0
lhand 10.5731 11.0002 0
lfingers 7.12502 0 0
lthumb 35.6452 37.1792 0
rclavicle -2.81611e-014 -1.029e-014 0
rhumerus -34.8114 60.7396 -72.5148
rradius 80.3966 0 0
rwrist 3.73213 0 0
rhand -0.747238 -10.6332 0
rfingers 7.12502 0 0
rthumb 24.8328 -758.448 0
316
root 8.66119 15.6203 -22.7153 11.4267 47.3784 12.4715
lfemur -16.423 18.7063 -15.0031
ltibia 55.4408 0 0
lfoot -13.6633 -22.5771 0
ltoes 50.799 0 0
rfemur -51.4263 -20.2516 35.898
rtibia 55.7221 0 0
rfoot 11.3976 14.5117 0
rtoes 1.36767 0 0
lowerback 8.41774 -2.59791 -6.92973
upperback 4.57654 -3.90607 -3.08316
thorax 0.367115 -1.97841 1.01174
lowerneck -5.90383 -9.29231 -1.85495
upperneck -2.03459 -12.3253 9.55772
head 1.19967 -6.0526 2.9704
lclavicle -2.75068e-014 -9.78723e-015 0
lhumerus -42.804 -39.1357 99.8633
lradius 58.8072 0 0
lwrist 20.4226 0 0
lhand 10.1992 10.9433 0
lfingers 7.12502 0 0
lthumb 35.2885 37.1868 0
rclavicle -2.75068e-014 -9.78723e-015 0
rhumerus -34.9209 59.4612 -72.9611
rradius 80.2906 0 0
rwrist 3.70706 0 0
rhand -1.52458 -11.2477 0
rfingers 7.12502 0 0
rthumb 24.0844 -759.11 0
317
root 8.61959 15.64 -22.5958 11.3293 46.1792 12.0992
lfemur -16.4328 18.6667 -14.6762
ltibia 55.8103 0 0
lfoot -13.2581 -22.2067 0
ltoes 49.9332 0 0
rfemur -51.0262 -20.154 35.7294
rtibia 55.4937 0 0
rfoot 10.7519 14.1961 0
rtoes 1.55328 0 0
lowerback 8.27097 -2.53116 -6.75369
upperback 4.51557 -3.80661 -2.96905
thorax 0.377323 -1.92823 1.02305
lowerneck -5.94242 -9.17357 -1.80883
upperneck -1.96379 -12.1719 9.42864
head 1.21169 -5.9761 2.92502
lclavicle -2.68525e-014 -9.28442e-015 0
lhumerus -42.8481 -38.7585 99.942
lradius 58.7723 0 0
lwrist 20.3149 0 0
lhand 9.82525 10.8864 0
lfingers 7.12502 0 0
lthumb 34.9318 37.1945 0
rclavicle -2.68525e-014 -9.28442e-015 0
rhumerus -35.0303 58.1828 -73.4073
rradius 80.1846 0 0
rwrist 3.682 0 0
rhand -2.30192 -11.8622 0
rfingers 7.12502 0 0
rthumb 23.3361 -759.772 0
318
root 8.578 15.6598 -22.4763 11.2319 44.9801 11.727
lfemur -16.4427 18.6271 -14.3492
ltibia 56.1798 0 0
lfoot -12.8529 -21.8363 0
ltoes 49.0673 0 0
rfemur -50.6262 -20.0564 35.5607
rtibia 55.2652 0 0
rfoot 10.1063 13.8806 0
rtoes 1.73888 0 0
lowerback 8.12419 -2.46442 -6.57764
upperback 4.4546 -3.70714 -2.85494
thorax 0.387532 -1.87806 1.03436
lowerneck -5.98101 -9.05482 -1.76271
upperneck -1.89298 -12.0186 9.29957
head 1.22371 -5.8996 2.87964
lclavicle -2.61981e-014 -8.78161e-015 0
lhumerus -42.8923 -38.3813 100.021
lradius 58.7373 0 0
lwrist 20.2073 0 0
lhand 9.45132 10.8294 0
lfingers 7.12502 0 0
lthumb 34.5751 37.2022 0
rclavicle -2.61981e-014 -8.78161e-015 0
rhumerus -35.1398 56.9044 -73.8535
rradius 80.0786 0 0
rwrist 3.65694 0 0
rhand -3.07926 -12.4767 0
rfingers 7.12502 0 0
rthumb 22.5877 -760.434 0
